HIERARCHY
ROOT Hips
{
	OFFSET 0.00000 0.00000 0.00000
	CHANNELS 6 Xposition Yposition Zposition Zrotation Yrotation Xrotation 
	JOINT LHipJoint
	{
		OFFSET 0 0 0
		CHANNELS 3 Zrotation Yrotation Xrotation
		JOINT LeftUpLeg
		{
			OFFSET 1.65412 -1.54119 0.76744
			CHANNELS 3 Zrotation Yrotation Xrotation
			JOINT LeftLeg
			{
				OFFSET 2.19550 -6.03209 0.00000
				CHANNELS 3 Zrotation Yrotation Xrotation
				JOINT LeftFoot
				{
					OFFSET 2.38814 -6.56138 0.00000
					CHANNELS 3 Zrotation Yrotation Xrotation
					JOINT LeftToeBase
					{
						OFFSET 0.17337 -0.47632 1.75875
						CHANNELS 3 Zrotation Yrotation Xrotation
						End Site
						{
							OFFSET 0.00000 -0.00000 0.92050
						}
					}
				}
			}
		}
	}
	JOINT RHipJoint
	{
		OFFSET 0 0 0
		CHANNELS 3 Zrotation Yrotation Xrotation
		JOINT RightUpLeg
		{
			OFFSET -1.40291 -1.54119 0.76744
			CHANNELS 3 Zrotation Yrotation Xrotation
			JOINT RightLeg
			{
				OFFSET -2.22156 -6.10370 0.00000
				CHANNELS 3 Zrotation Yrotation Xrotation
				JOINT RightFoot
				{
					OFFSET -2.46840 -6.78188 0.00000
					CHANNELS 3 Zrotation Yrotation Xrotation
					JOINT RightToeBase
					{
						OFFSET -0.15659 -0.43024 1.84117
						CHANNELS 3 Zrotation Yrotation Xrotation
						End Site
						{
							OFFSET -0.00000 -0.00000 0.95587
						}
					}
				}
			}
		}
	}
	JOINT LowerBack
	{
		OFFSET 0 0 0
		CHANNELS 3 Zrotation Yrotation Xrotation
		JOINT Spine
		{
			OFFSET -0.01936 1.82120 -0.32061
			CHANNELS 3 Zrotation Yrotation Xrotation
			JOINT Spine1
			{
				OFFSET -0.00532 1.85767 -0.00071
				CHANNELS 3 Zrotation Yrotation Xrotation
				JOINT Neck
				{
					OFFSET 0 0 0
					CHANNELS 3 Zrotation Yrotation Xrotation
					JOINT Neck1
					{
						OFFSET -0.10687 1.58194 0.10810
						CHANNELS 3 Zrotation Yrotation Xrotation
						JOINT Head
						{
							OFFSET 0.15346 1.57382 -0.25612
							CHANNELS 3 Zrotation Yrotation Xrotation
							End Site
							{
								OFFSET 0.05334 1.61251 -0.10513
							}
						}
					}
				}
				JOINT LeftShoulder
				{
					OFFSET 0 0 0
					CHANNELS 3 Zrotation Yrotation Xrotation
					JOINT LeftArm
					{
						OFFSET 2.85758 0.89498 -0.01485
						CHANNELS 3 Zrotation Yrotation Xrotation
						JOINT LeftForeArm
						{
							OFFSET 4.79185 -0.00000 -0.00000
							CHANNELS 3 Zrotation Yrotation Xrotation
							JOINT LeftHand
							{
								OFFSET 2.65553 -0.00000 0.00000
								CHANNELS 3 Zrotation Yrotation Xrotation
								JOINT LeftFingerBase
								{
									OFFSET 0 0 0
									CHANNELS 3 Zrotation Yrotation Xrotation
									JOINT LeftHandIndex1
									{
										OFFSET 0.74390 -0.00000 0.00000
										CHANNELS 3 Zrotation Yrotation Xrotation
										End Site
										{
											OFFSET 0.59975 -0.00000 0.00000
										}
									}
								}
								JOINT LThumb
								{
									OFFSET 0 0 0
									CHANNELS 3 Zrotation Yrotation Xrotation
									End Site
									{
										OFFSET 0.60891 -0.00000 0.60891
									}
								}
							}
						}
					}
				}
				JOINT RightShoulder
				{
					OFFSET 0 0 0
					CHANNELS 3 Zrotation Yrotation Xrotation
					JOINT RightArm
					{
						OFFSET -2.93906 0.88031 0.02490
						CHANNELS 3 Zrotation Yrotation Xrotation
						JOINT RightForeArm
						{
							OFFSET -4.77254 -0.00000 -0.00000
							CHANNELS 3 Zrotation Yrotation Xrotation
							JOINT RightHand
							{
								OFFSET -2.75995 -0.00000 -0.00000
								CHANNELS 3 Zrotation Yrotation Xrotation
								JOINT RightFingerBase
								{
									OFFSET 0 0 0
									CHANNELS 3 Zrotation Yrotation Xrotation
									JOINT RightHandIndex1
									{
										OFFSET -0.70162 -0.00000 0.00000
										CHANNELS 3 Zrotation Yrotation Xrotation
										End Site
										{
											OFFSET -0.56566 -0.00000 0.00000
										}
									}
								}
								JOINT RThumb
								{
									OFFSET 0 0 0
									CHANNELS 3 Zrotation Yrotation Xrotation
									End Site
									{
										OFFSET -0.57430 -0.00000 0.57430
									}
								}
							}
						}
					}
				}
			}
		}
	}
}
MOTION
Frames: 11
Frame Time: .0083333
0.2851 15.2476 -1.7289 -0.6016 8.1230 -1.5118 0.0000 0.0000 0.0000 -14.9614 -17.5895 -19.1345 5.2481 13.6578 41.8837 0.5393 -4.8552 -13.0703 0.6950 -5.3293 -14.8503 0.0000 0.0000 0.0000 14.5491 7.5031 -19.7616 -5.8662 -14.2975 44.4425 -1.0190 -4.7208 -21.3282 -1.0678 6.5692 -18.4453 -0.5428 2.3133 22.3703 4.0568 3.2168 6.3915 3.8395 1.5777 -5.7444 -11.9894 -8.2256 -3.9425 38.9941 -14.0660 6.0036 14.9023 -6.0083 6.7622 -0.0000 -0.0000 0.0000 17.6951 -46.2467 -35.0778 149.1710 -41.5935 -108.0438 -0.0000 0.0000 -27.0342 3.9053 30.4412 1.9809 -7.1250 0.0000 -0.0000 -30.3145 57.7918 -10.1024 -0.0000 -0.0000 0.0000 32.1237 5.3668 23.0479 -148.9693 41.7606 -107.9097 0.0000 -0.0000 -27.3371 18.8320 1.8431 0.6285 7.1250 -0.0000 -0.0000 33.0289 -26.8807 17.4228
0.2850 15.2506 -1.7314 -0.7145 8.1095 -1.4475 0.0000 0.0000 0.0000 -14.7989 -17.6193 -19.2252 5.2469 13.6565 41.8785 0.5379 -4.8724 -13.0537 0.6565 -5.1825 -14.4298 0.0000 0.0000 0.0000 14.6722 7.5508 -19.8140 -5.8448 -14.2762 44.3555 -1.0101 -4.7829 -21.2860 -1.0822 6.6120 -18.5709 -0.4663 2.3329 22.2751 4.0687 3.2589 6.3790 3.7989 1.5978 -5.7093 -12.0154 -8.2387 -3.8193 39.0409 -14.0440 5.8577 14.9283 -6.0224 6.6942 -0.0000 0.0000 0.0000 18.3514 -46.6491 -35.5554 149.1504 -41.6106 -108.0302 -0.0000 0.0000 -26.9488 4.3676 29.9482 2.1836 -7.1250 0.0000 -0.0000 -29.4540 57.4660 -9.5438 -0.0000 0.0000 0.0000 32.1596 5.1850 22.9426 -149.1253 41.6314 -108.0135 0.0000 -0.0000 -27.3913 19.1651 1.8923 0.6575 7.1250 -0.0000 -0.0000 33.2166 -26.8052 17.6399
0.2848 15.2520 -1.7343 -0.7527 8.1121 -1.4024 0.0000 0.0000 0.0000 -14.7388 -17.6349 -19.2925 5.2455 13.6550 41.8728 0.5395 -4.8140 -13.0729 0.6749 -5.2530 -14.6315 0.0000 0.0000 0.0000 14.7105 7.5475 -19.8539 -5.8284 -14.2600 44.2893 -1.0023 -4.8253 -21.2413 -1.0929 6.6436 -18.6638 -0.4520 2.3540 22.2423 4.0665 3.2881 6.3996 3.7813 1.6116 -5.6712 -12.0343 -8.2632 -3.8896 39.0815 -14.0316 5.6948 14.9389 -6.0238 6.6643 -0.0000 0.0000 0.0000 19.0171 -47.0827 -36.0870 149.1611 -41.6017 -108.0373 -0.0000 0.0000 -26.7006 4.3792 29.5152 2.1606 -7.1250 0.0000 -0.0000 -29.0939 57.0936 -9.1450 -0.0000 0.0000 0.0000 32.1897 5.1292 22.8327 -149.2317 41.5429 -108.0841 0.0000 -0.0000 -27.4088 19.8403 1.7951 0.6476 7.1250 -0.0000 -0.0000 33.6530 -26.8238 17.9582
0.2864 15.2547 -1.7354 -0.8291 8.1059 -1.4477 0.0000 0.0000 0.0000 -14.6781 -17.6271 -19.2559 5.2433 13.6527 41.8637 0.5448 -4.7600 -13.1366 0.7051 -5.3668 -14.9578 0.0000 0.0000 0.0000 14.7970 7.5363 -19.7899 -5.8165 -14.2481 44.2407 -0.9973 -4.8446 -21.2074 -1.0888 6.6313 -18.6277 -0.3717 2.3694 22.2821 4.0822 3.3256 6.4489 3.7419 1.6287 -5.6374 -12.0847 -8.2914 -4.0470 39.1087 -14.0148 5.5151 14.9457 -6.0171 6.6476 0.0000 -0.0000 0.0000 19.6496 -47.5713 -36.6364 149.4400 -41.3686 -108.2220 -0.0000 0.0000 -27.3104 4.4476 29.8730 2.2186 -7.1250 0.0000 -0.0000 -29.3147 57.4180 -9.4584 0.0000 -0.0000 0.0000 32.1924 5.0906 22.6207 -149.2825 41.5005 -108.1178 0.0000 -0.0000 -27.4566 19.9893 1.7233 0.6268 7.1250 -0.0000 -0.0000 33.7640 -26.8719 17.9962
0.2884 15.2552 -1.7366 -0.8272 8.0872 -1.4568 0.0000 0.0000 0.0000 -14.6975 -17.6108 -19.2510 5.2427 13.6520 41.8611 0.5514 -4.7504 -13.2170 0.7360 -5.4808 -15.2852 0.0000 0.0000 0.0000 14.7839 7.5349 -19.7834 -5.8152 -14.2468 44.2353 -0.9943 -4.8654 -21.1931 -1.0899 6.6348 -18.6380 -0.3993 2.3830 22.3034 4.0918 3.3374 6.4714 3.7647 1.6343 -5.6267 -12.1756 -8.3125 -4.0303 39.1260 -13.9936 5.3555 14.9659 -6.0255 6.6004 -0.0000 0.0000 0.0000 20.0454 -47.9794 -36.8220 149.6869 -41.1603 -108.3849 -0.0000 0.0000 -27.2760 4.4241 29.8471 2.2051 -7.1250 0.0000 -0.0000 -29.3166 57.3905 -9.4392 -0.0000 0.0000 0.0000 32.1843 5.0047 22.3888 -149.3707 41.4267 -108.1762 0.0000 -0.0000 -27.5185 19.4895 1.7037 0.6028 7.1250 -0.0000 -0.0000 33.4697 -26.9399 17.7000
0.2900 15.2532 -1.7402 -0.7501 8.0961 -1.3760 0.0000 0.0000 0.0000 -14.7647 -17.6692 -19.3225 5.2417 13.6509 41.8565 0.5484 -4.7910 -13.1806 0.7199 -5.4219 -15.1160 0.0000 0.0000 0.0000 14.6682 7.5343 -19.8942 -5.8220 -14.2536 44.2630 -0.9937 -4.8202 -21.1603 -1.0847 6.6195 -18.5928 -0.5009 2.3834 22.2811 4.0833 3.3158 6.4455 3.8199 1.6247 -5.6468 -12.3255 -8.3321 -3.8883 39.1506 -13.9980 5.2787 15.0116 -6.0535 6.5652 -0.0000 0.0000 0.0000 20.2045 -48.3530 -36.6252 149.7680 -41.0915 -108.4382 -0.0000 0.0000 -26.2895 4.5677 29.0255 2.2198 -7.1250 0.0000 -0.0000 -28.5262 56.7066 -8.6718 -0.0000 0.0000 0.0000 32.1927 4.9869 22.2539 -149.4338 41.3738 -108.2179 0.0000 -0.0000 -27.5728 19.1696 1.6786 0.5834 7.1250 -0.0000 -0.0000 33.2837 -26.9937 17.5046
0.2896 15.2514 -1.7451 -0.6760 8.1575 -1.3051 0.0000 0.0000 0.0000 -14.8228 -17.7593 -19.3993 5.2411 13.6502 41.8541 0.5409 -4.7877 -13.0894 0.7026 -5.3576 -14.9313 0.0000 0.0000 0.0000 14.5670 7.4963 -20.0243 -5.8346 -14.2661 44.3143 -0.9922 -4.8165 -21.1441 -1.0943 6.6478 -18.6760 -0.6132 2.3626 22.3315 4.0840 3.2669 6.3942 3.8968 1.6024 -5.7306 -12.4653 -8.3430 -3.8784 39.1134 -14.0232 5.3337 15.0252 -6.0676 6.5943 -0.0000 -0.0000 0.0000 20.1246 -48.7460 -36.1202 149.9760 -40.9139 -108.5747 -0.0000 0.0000 -25.8900 4.9550 28.4808 2.3674 -7.1250 0.0000 -0.0000 -27.7358 56.3082 -8.1297 -0.0000 -0.0000 0.0000 32.1567 4.9728 22.1496 -149.5180 41.3029 -108.2736 0.0000 -0.0000 -27.6969 19.1524 1.7881 0.6209 7.1250 -0.0000 -0.0000 33.2402 -26.8986 17.5657
0.2905 15.2512 -1.7477 -0.6374 8.1979 -1.2512 0.0000 0.0000 0.0000 -14.8562 -17.8335 -19.4584 5.2417 13.6509 41.8567 0.5398 -4.7123 -13.0764 0.7127 -5.3951 -15.0389 0.0000 0.0000 0.0000 14.5041 7.4661 -20.1130 -5.8456 -14.2771 44.3590 -0.9998 -4.7679 -21.1832 -1.0911 6.6383 -18.6481 -0.6263 2.3730 22.3252 4.0350 3.2745 6.3748 3.8485 1.6065 -5.7469 -12.4052 -8.3816 -3.8392 39.1123 -14.0442 5.2081 14.9983 -6.0898 6.5501 -0.0000 0.0000 0.0000 20.1908 -49.2829 -35.7542 150.2795 -40.6526 -108.7729 -0.0000 0.0000 -25.9981 5.0192 28.2368 2.3794 -7.1250 0.0000 -0.0000 -27.4927 56.1064 -7.9123 -0.0000 0.0000 0.0000 32.2680 4.7667 21.9717 -149.6428 41.1976 -108.3558 0.0000 -0.0000 -27.8301 19.3420 1.9126 0.6712 7.1250 -0.0000 -0.0000 33.3176 -26.7699 17.7524
0.2920 15.2524 -1.7480 -0.5979 8.1670 -1.1967 0.0000 0.0000 0.0000 -14.8861 -17.8427 -19.5024 5.2415 13.6507 41.8559 0.5401 -4.6843 -13.0791 0.7062 -5.3709 -14.9696 0.0000 0.0000 0.0000 14.4423 7.4778 -20.1948 -5.8550 -14.2863 44.3970 -1.0052 -4.7106 -21.1980 -1.0943 6.6476 -18.6754 -0.6815 2.4064 22.2853 4.0134 3.3038 6.3684 3.8495 1.6211 -5.7373 -12.3715 -8.4256 -3.7345 39.0947 -14.0428 4.9947 14.9679 -6.1164 6.4592 -0.0000 -0.0000 0.0000 20.1664 -49.8934 -35.4265 150.5850 -40.3867 -108.9714 -0.0000 0.0000 -26.0485 4.4625 28.3173 2.1201 -7.1250 0.0000 -0.0000 -28.0917 56.0659 -8.0764 -0.0000 -0.0000 0.0000 32.3169 4.4855 21.7932 -149.8936 40.9844 -108.5207 0.0000 -0.0000 -28.0215 19.8650 1.9187 0.6931 7.1250 -0.0000 -0.0000 33.6301 -26.7120 18.0530
0.2925 15.2520 -1.7495 -0.5957 8.1403 -1.1790 0.0000 0.0000 0.0000 -14.8794 -17.8178 -19.5210 5.2435 13.6528 41.8642 0.5345 -4.7329 -13.0114 0.6849 -5.2911 -14.7408 0.0000 0.0000 0.0000 14.4305 7.5253 -20.2202 -5.8619 -14.2932 44.4249 -1.0056 -4.7125 -21.2029 -1.1172 6.7145 -18.8722 -0.7428 2.4259 22.2883 4.0376 3.3175 6.3692 3.9073 1.6281 -5.7437 -12.4279 -8.4443 -3.6169 39.1037 -14.0072 4.7924 14.9795 -6.1300 6.3699 -0.0000 -0.0000 0.0000 19.9761 -50.5215 -34.8579 150.8623 -40.1427 -109.1506 -0.0000 0.0000 -26.3549 4.3012 28.3875 2.0479 -7.1250 0.0000 -0.0000 -28.3002 56.0953 -8.1642 -0.0000 -0.0000 0.0000 32.3286 4.3561 21.5898 -150.0679 40.8352 -108.6348 0.0000 -0.0000 -28.1832 20.3127 1.9569 0.7242 7.1250 -0.0000 -0.0000 33.8852 -26.6318 18.3356
0.2923 15.2503 -1.7512 -0.5537 8.1266 -1.1584 0.0000 0.0000 0.0000 -14.9141 -17.8219 -19.5328 5.2423 13.6516 41.8592 0.5335 -4.7650 -12.9989 0.6588 -5.1914 -14.4554 0.0000 0.0000 0.0000 14.3826 7.5823 -20.2534 -5.8751 -14.3062 44.4783 -1.0088 -4.7071 -21.2279 -1.1161 6.7113 -18.8629 -0.8462 2.4415 22.2944 4.0602 3.3160 6.3993 3.9922 1.6274 -5.7206 -12.5273 -8.4789 -3.5719 39.1189 -13.9828 4.5543 14.9966 -6.1465 6.2939 0.0000 0.0000 0.0000 19.6186 -51.0658 -34.2758 151.2446 -39.8024 -109.3962 -0.0000 0.0000 -26.7952 4.0530 28.5425 1.9391 -7.1250 0.0000 -0.0000 -28.6565 56.1811 -8.3410 0.0000 0.0000 0.0000 32.3430 4.5029 21.4532 -150.0058 40.8884 -108.5942 0.0000 -0.0000 -28.1440 20.2709 1.9626 0.7247 7.1250 -0.0000 -0.0000 33.8587 -26.6312 18.3152
